<svg width="29" height="28" viewBox="0 0 29 28" fill="none" xmlns="http://www.w3.org/2000/svg">
<g clip-path="url(#clip0_1974_10888)">
<path d="M13.9944 2.07752L3.24746 7.26574C3.11269 7.3308 3.0271 7.46721 3.0271 7.61683V20.3831C3.0271 20.5328 3.11274 20.6692 3.24746 20.7342L13.9944 25.9225C14.2086 26.0259 14.4583 26.0259 14.6724 25.9225L25.4194 20.7342C25.5542 20.6692 25.6398 20.5328 25.6398 20.3831V7.61683C25.6398 7.46721 25.5541 7.3308 25.4194 7.26574L14.6724 2.07752C14.4583 1.97416 14.2086 1.97416 13.9944 2.07752Z" fill="#FFE17D"/>
<path d="M3.09193 7.40332C3.05096 7.46571 3.0271 7.53916 3.0271 7.61674V20.3831C3.0271 20.5327 3.11274 20.6691 3.24746 20.7341L13.9944 25.9223C14.1015 25.974 14.2175 25.9998 14.3334 25.9998V12.8303L3.09193 7.40332Z" fill="#FFC350"/>
<path d="M25.575 7.40332C25.616 7.46571 25.6398 7.53916 25.6398 7.61674V20.3831C25.6398 20.5327 25.5542 20.6691 25.4195 20.7341L14.6725 25.9223C14.5654 25.974 14.4495 25.9999 14.3335 25.9999V12.8303L25.575 7.40332Z" fill="#FFD164"/>
<path d="M6.24337 19.7025C6.18665 19.7025 6.12876 19.6899 6.07433 19.6637L4.4151 18.8627C4.22094 18.769 4.13985 18.536 4.23351 18.3422C4.32679 18.1484 4.56055 18.0677 4.75396 18.1606L6.41319 18.9617C6.60735 19.0554 6.68844 19.2884 6.59479 19.4822C6.5278 19.6214 6.38844 19.7025 6.24337 19.7025Z" fill="#FFE17D"/>
<path d="M7.77039 18.7089C7.71367 18.7089 7.65578 18.6964 7.60136 18.6701L4.41723 17.1331C4.22345 17.0394 4.14198 16.8064 4.23564 16.6126C4.32892 16.4192 4.56306 16.3381 4.75609 16.431L7.94017 17.9681C8.13395 18.0617 8.21542 18.2948 8.12176 18.4885C8.05483 18.6278 7.91547 18.7089 7.77039 18.7089Z" fill="#FFF6D8"/>
<path d="M21.7655 9.23596L10.4845 3.78613L7.51074 5.22754L18.8171 10.6858L21.7655 9.23596Z" fill="#FF8087"/>
<path d="M18.8169 10.6861V14.9146C18.8169 15.0583 18.9671 15.1526 19.0966 15.0901L21.545 13.9082C21.6797 13.8431 21.7653 13.7067 21.7653 13.5571V9.23633L18.8169 10.6861Z" fill="#E6646E"/>
</g>
<defs>
<clipPath id="clip0_1974_10888">
<rect width="24" height="24" fill="white" transform="translate(2.3335 2)"/>
</clipPath>
</defs>
</svg>
