<svg width="29" height="28" viewBox="0 0 29 28" fill="none" xmlns="http://www.w3.org/2000/svg">
<path d="M3.03464 13.2988V13.6705L2.58154 13.5203L3.03464 13.2988Z" fill="#49E4A3"/>
<path d="M18.6379 19.6489V24.7525L26.536 19.0684V14.0615L18.6379 19.6489Z" fill="#28AF6E"/>
<path d="M26.8851 13.8144L19.4742 19.0571L3.03572 13.6702V10.5943L6.20616 11.6583C6.20616 11.6583 3.34298 10.1509 2.44873 9.43104V7.62109C2.44873 7.62109 7.25202 12.0279 19.0281 14.773L26.1089 9.4666V10.54L26.812 10.703L26.8851 13.8144Z" fill="#28AF6E"/>
<path d="M9.55469 11.7207V15.8064L11.8377 16.5545V12.6324C11.0189 12.3289 10.2586 12.0232 9.55469 11.7207Z" fill="#FFCA6C"/>
<path d="M2.58203 13.5215V18.2766L18.6381 24.7523V19.6488L2.58203 13.5215Z" fill="#39C988"/>
<path d="M9.56519 16.1865V21.0932L11.8895 22.0306V17.0735L9.56519 16.1865Z" fill="#FFCA6C"/>
<path d="M19.4742 19.0572L18.6381 19.6488L2.58228 13.5215L19.4742 19.0572Z" fill="#49E4A3"/>
<path d="M26.1092 9.46661L19.0277 14.7739C16.3474 14.1197 13.9394 13.4019 11.8038 12.6306C10.9994 12.3404 10.2332 12.0426 9.50521 11.7371C6.46341 10.4644 4.10631 9.07205 2.44922 7.62115C5.28999 5.69932 8.14853 4.25352 11.0274 3.24805C13.3236 5.12646 15.9502 6.44923 18.7173 7.45059C20.8299 8.21423 23.266 8.88369 26.1092 9.46661Z" fill="#49E4A3"/>
<path d="M18.4931 13.8803C12.2278 12.2977 7.32935 10.2974 4.16992 8.03931C4.41379 7.88755 4.42504 7.53655 4.19132 7.36958C6.24644 6.09133 8.3474 5.04246 10.4623 4.23926C10.6843 4.40573 10.9756 4.44772 11.2347 4.34825C14.32 6.6789 18.2092 8.35833 23.5371 9.64921C23.2649 9.85315 23.3531 10.2821 23.6836 10.3623L19.1718 13.7435C18.9366 13.6846 18.6869 13.7345 18.4931 13.8803Z" fill="#39C988"/>
<path d="M26.8852 13.8145L19.4744 19.0572V16.2074L26.8121 10.7031L26.8852 13.8145Z" fill="#39C988"/>
<path d="M26.1089 9.4668V10.5402L19.0281 15.7936V14.7732L26.1089 9.4668Z" fill="#39C988"/>
<path d="M26.8119 10.7031L19.4742 16.2074L19.0281 15.7935L26.1089 10.54L26.8119 10.7031Z" fill="#49E4A3"/>
<path d="M6.20632 11.6584L3.03589 10.5944L3.72955 10.2744C3.72955 10.2744 5.45296 11.2968 6.20632 11.6584Z" fill="#39C988"/>
<path d="M26.5364 14.0615V16.4612L19.4744 19.058L26.5364 14.0615Z" fill="#189453"/>
<path d="M16.7606 8.3561C16.7606 8.3561 18.4246 9.3817 15.6919 10.5212C12.9592 11.6608 11.786 10.8475 11.4988 10.3442C11.3566 10.0949 11.3599 8.95325 12.9973 8.24519C14.6347 7.53712 16.1808 7.95006 16.7606 8.3561Z" fill="#49E4A3"/>
<path d="M19.6617 11.8479C18.5077 12.3292 18.0122 11.9857 17.891 11.7732C17.8309 11.6679 17.8323 11.1858 18.5238 10.8868C19.7072 10.375 21.2034 11.2051 19.6617 11.8479Z" fill="#49E4A3"/>
<path d="M7.88033 7.50001C7.88033 7.50001 7.17764 7.06693 8.33167 6.58569C9.48569 6.10446 9.98113 6.44786 10.1024 6.66041C10.1624 6.76568 10.161 7.2478 9.46953 7.54682C8.77805 7.84584 8.12516 7.67147 7.88033 7.50001Z" fill="#49E4A3"/>
<path d="M18.7172 7.45054L11.8037 12.6305C10.9993 12.3403 10.2332 12.0425 9.50513 11.7371L16.4466 6.53418C17.1593 6.85491 17.9153 7.16035 18.7172 7.45054Z" fill="#FFDE9B"/>
<path d="M9.91518 15.9248L9.56519 16.1866C10.2932 16.492 11.0786 16.7861 11.8829 17.0763L12.3532 16.7239L9.91518 15.9248Z" fill="#FFDE9B"/>
</svg>
