<svg width="27" height="28" viewBox="0 0 27 28" fill="none" xmlns="http://www.w3.org/2000/svg">
<path d="M23.5912 21.758L22.3312 9.15802C22.2892 8.7258 22.0875 8.32481 21.7654 8.03351C21.4434 7.74221 21.0242 7.58156 20.59 7.58302H5.20165C4.7674 7.58156 4.34824 7.74221 4.02619 8.03351C3.70414 8.32481 3.50238 8.7258 3.4604 9.15802L2.2004 21.758C2.14333 22.3258 2.20592 22.8993 2.38412 23.4414C2.56232 23.9836 2.85218 24.4823 3.235 24.9056C3.61782 25.3288 4.0851 25.6671 4.60671 25.8986C5.12831 26.1301 5.69264 26.2497 6.26332 26.2497H19.5283C20.099 26.2497 20.6633 26.1301 21.1849 25.8986C21.7065 25.6671 22.1738 25.3288 22.5566 24.9056C22.9395 24.4823 23.2293 23.9836 23.4075 23.4414C23.5857 22.8993 23.6483 22.3258 23.5912 21.758Z" fill="#FFC127"/>
<path d="M8.22892 11.0833C8.87325 11.0833 9.39559 10.561 9.39559 9.91667C9.39559 9.27233 8.87325 8.75 8.22892 8.75C7.58459 8.75 7.06226 9.27233 7.06226 9.91667C7.06226 10.561 7.58459 11.0833 8.22892 11.0833Z" fill="#EE4D2D"/>
<path d="M17.5622 11.0833C18.2065 11.0833 18.7288 10.561 18.7288 9.91667C18.7288 9.27233 18.2065 8.75 17.5622 8.75C16.9178 8.75 16.3955 9.27233 16.3955 9.91667C16.3955 10.561 16.9178 11.0833 17.5622 11.0833Z" fill="#EE4D2D"/>
<path d="M17.5622 10.5C17.4075 10.5 17.2591 10.4385 17.1497 10.3291C17.0403 10.2197 16.9788 10.0714 16.9788 9.91667V7C16.9788 5.91703 16.5486 4.87842 15.7829 4.11265C15.0171 3.34687 13.9785 2.91667 12.8955 2.91667C11.8125 2.91667 10.7739 3.34687 10.0082 4.11265C9.24238 4.87842 8.81217 5.91703 8.81217 7V9.91667C8.81217 10.0714 8.75072 10.2197 8.64132 10.3291C8.53192 10.4385 8.38355 10.5 8.22884 10.5C8.07413 10.5 7.92576 10.4385 7.81636 10.3291C7.70697 10.2197 7.64551 10.0714 7.64551 9.91667V7C7.64551 5.60761 8.19863 4.27226 9.1832 3.28769C10.1678 2.30312 11.5031 1.75 12.8955 1.75C14.2879 1.75 15.6233 2.30312 16.6078 3.28769C17.5924 4.27226 18.1455 5.60761 18.1455 7V9.91667C18.1455 10.0714 18.0841 10.2197 17.9747 10.3291C17.8653 10.4385 17.7169 10.5 17.5622 10.5Z" fill="#EE4D2D"/>
</svg>
