<svg width="19" height="16" viewBox="0 0 19 16" fill="none" xmlns="http://www.w3.org/2000/svg">
<path d="M6.17401 3.68253L6.70962 5.16996C7.30459 6.82081 8.6046 8.12082 10.2554 8.71579L11.7429 9.2514C11.8769 9.30009 11.8769 9.49019 11.7429 9.53821L10.2554 10.0738C8.6046 10.6688 7.30459 11.9688 6.70962 13.6196L6.17401 15.1071C6.12532 15.2412 5.93522 15.2412 5.8872 15.1071L5.35159 13.6196C4.75661 11.9688 3.45661 10.6688 1.80576 10.0738L0.318325 9.53821C0.184256 9.48952 0.184256 9.29942 0.318325 9.2514L1.80576 8.71579C3.45661 8.12082 4.75661 6.82081 5.35159 5.16996L5.8872 3.68253C5.93522 3.54779 6.12532 3.54779 6.17401 3.68253Z" fill="url(#paint0_linear_11735_12226)"/>
<path d="M12.0878 0.0538999L12.3409 0.756007C12.622 1.53523 13.2358 2.14903 14.015 2.43012L14.7171 2.68323C14.7805 2.70624 14.7805 2.79579 14.7171 2.8188L14.015 3.0719C13.2358 3.35299 12.622 3.96679 12.3409 4.74601L12.0878 5.44812C12.0648 5.51155 11.9752 5.51155 11.9522 5.44812L11.6991 4.74601C11.418 3.96679 10.8042 3.35299 10.025 3.0719L9.32289 2.8188C9.25946 2.79579 9.25946 2.70624 9.32289 2.68323L10.025 2.43012C10.8042 2.14903 11.418 1.53523 11.6991 0.756007L11.9522 0.0538999C11.9752 -0.0101541 12.0654 -0.0101541 12.0878 0.0538999Z" fill="url(#paint1_linear_11735_12226)"/>
<path d="M15.5409 9.69829L15.794 10.4004C16.0751 11.1796 16.6889 11.7934 17.4681 12.0745L18.1702 12.3276C18.2336 12.3506 18.2336 12.4402 18.1702 12.4632L17.4681 12.7163C16.6889 12.9974 16.0751 13.6112 15.794 14.3904L15.5409 15.0925C15.5179 15.1559 15.4283 15.1559 15.4053 15.0925L15.1522 14.3904C14.8711 13.6112 14.2573 12.9974 13.4781 12.7163L12.776 12.4632C12.7125 12.4402 12.7125 12.3506 12.776 12.3276L13.4781 12.0745C14.2573 11.7934 14.8711 11.1796 15.1522 10.4004L15.4053 9.69829C15.4283 9.63486 15.5185 9.63486 15.5409 9.69829Z" fill="url(#paint2_linear_11735_12226)"/>
<defs>
<linearGradient id="paint0_linear_11735_12226" x1="2.85381" y1="2.23214" x2="13.4514" y2="14.7805" gradientUnits="userSpaceOnUse">
<stop stop-color="#673AE3"/>
<stop offset="0.403846" stop-color="currentColor"/>
<stop offset="0.875" stop-color="currentColor"/>
<stop offset="1" stop-color="currentColor"/>
</linearGradient>
<linearGradient id="paint1_linear_11735_12226" x1="2.85381" y1="2.23214" x2="13.4514" y2="14.7805" gradientUnits="userSpaceOnUse">
<stop stop-color="#673AE3"/>
<stop offset="0.403846" stop-color="currentColor"/>
<stop offset="0.875" stop-color="currentColor"/>
<stop offset="1" stop-color="currentColor"/>
</linearGradient>
<linearGradient id="paint2_linear_11735_12226" x1="2.85381" y1="2.23214" x2="13.4514" y2="14.7805" gradientUnits="userSpaceOnUse">
<stop stop-color="#673AE3"/>
<stop offset="0.403846" stop-color="currentColor"/>
<stop offset="0.875" stop-color="currentColor"/>
<stop offset="1" stop-color="currentColor"/>
</linearGradient>
</defs>
</svg>
