<svg width="14" height="15" viewBox="0 0 14 15" fill="none" xmlns="http://www.w3.org/2000/svg">
<path d="M7.3879 4.1418L9.70549 6.20097C10.6202 7.01472 11.0781 7.4213 11.0781 7.94514C11.0781 8.46955 10.6202 8.87614 9.70549 9.6893L7.3879 11.7485C6.97024 12.1201 6.7614 12.3061 6.58932 12.2286C6.41724 12.151 6.41724 11.8721 6.41724 11.3127V9.94539C4.31724 9.94539 2.04224 10.9452 1.16724 12.6118C1.16724 7.27897 4.27815 5.94547 6.41724 5.94547V4.57755C6.41724 4.01872 6.41724 3.7393 6.58932 3.66172C6.7614 3.58472 6.97024 3.77022 7.38849 4.1418H7.3879Z" stroke="white" stroke-width="1.0625" stroke-linecap="round" stroke-linejoin="round"/>
<path opacity="0.5" d="M9.06567 3.57031L12.1083 6.39598C12.3435 6.61439 12.5298 6.88012 12.6549 7.1757C12.7799 7.47127 12.841 7.78998 12.8341 8.11085C12.8271 8.43173 12.7523 8.7475 12.6146 9.03738C12.4768 9.32727 12.2792 9.5847 12.0348 9.79273L9.06567 12.3203" stroke="white" stroke-width="1.0625" stroke-linecap="round"/>
</svg>
