<svg width="18" height="18" viewBox="0 0 18 18" fill="none" xmlns="http://www.w3.org/2000/svg">
<g clip-path="url(#clip0_2857_14538)">
<path d="M18 6V12C18 14.0708 16.3207 15.75 14.25 15.75H12.75V2.25H14.25C16.3207 2.25 18 3.92925 18 6ZM11.25 2.25V15.75H3.75C1.67925 15.75 0 14.0708 0 12V6C0 3.92925 1.67925 2.25 3.75 2.25H11.25ZM8.25 6C8.25 5.58525 7.914 5.25 7.5 5.25H3C2.586 5.25 2.25 5.58525 2.25 6C2.25 6.41475 2.586 6.75 3 6.75H4.5V12C4.5 12.4148 4.836 12.75 5.25 12.75C5.664 12.75 6 12.4148 6 12V6.75H7.5C7.914 6.75 8.25 6.41475 8.25 6ZM10.5 16.5C10.086 16.5 9.75 16.8353 9.75 17.25C9.75 17.6647 10.086 18 10.5 18C11.076 18 11.6018 17.7825 12 17.4255C12.3982 17.7825 12.924 18 13.5 18C13.914 18 14.25 17.6647 14.25 17.25C14.25 16.8353 13.914 16.5 13.5 16.5C13.086 16.5 12.75 16.164 12.75 15.75H11.25C11.25 16.164 10.9132 16.5 10.5 16.5ZM13.5 1.5C13.914 1.5 14.25 1.16475 14.25 0.75C14.25 0.33525 13.914 0 13.5 0C12.924 0 12.3982 0.2175 12 0.5745C11.6018 0.2175 11.076 0 10.5 0C10.086 0 9.75 0.33525 9.75 0.75C9.75 1.16475 10.086 1.5 10.5 1.5C10.914 1.5 11.25 1.836 11.25 2.25H12.75C12.75 1.836 13.0868 1.5 13.5 1.5Z" fill="#107980" fill-opacity="0.8"/>
</g>
<defs>
<clipPath id="clip0_2857_14538">
<rect width="18" height="18" fill="white"/>
</clipPath>
</defs>
</svg>
